<?xml version="1.0" encoding="UTF-8"?>
<svg id="Calque_1" data-name="Calque 1" xmlns="http://www.w3.org/2000/svg" viewBox="0 0 1077.89 119.7" fill="currentColor">
  <path d="M115.95,38.62c5,2.65,8.95,6.63,11.85,11.93,2.9,5.3,4.35,11.75,4.35,19.35v48.45h-13.5v-46.5c0-8.2-2.03-14.48-6.08-18.83-4.05-4.35-9.52-6.52-16.42-6.52s-12.75,2.28-16.95,6.83c-4.2,4.55-6.3,11.13-6.3,19.73v45.3h-13.5v-46.5c0-8.2-2.03-14.48-6.08-18.83-4.05-4.35-9.52-6.52-16.42-6.52s-12.75,2.28-16.95,6.83c-4.2,4.55-6.3,11.13-6.3,19.73v45.3H0V36.15h13.65v11.85c2.7-4.3,6.32-7.6,10.88-9.9,4.55-2.3,9.57-3.45,15.07-3.45,6.9,0,13,1.55,18.3,4.65,5.3,3.1,9.25,7.65,11.85,13.65,2.3-5.8,6.1-10.3,11.4-13.5,5.3-3.2,11.2-4.8,17.7-4.8s12.1,1.33,17.1,3.98Z"/>
  <path d="M154.95,20.1c-1.8-1.8-2.7-4-2.7-6.6s.9-4.8,2.7-6.6c1.8-1.8,4-2.7,6.6-2.7s4.62.9,6.38,2.7c1.75,1.8,2.62,4,2.62,6.6s-.88,4.8-2.62,6.6c-1.75,1.8-3.88,2.7-6.38,2.7s-4.8-.9-6.6-2.7ZM168.15,36.15v82.2h-13.65V36.15h13.65Z"/>
  <path d="M191.4,54.83c3.4-6.35,8.07-11.27,14.03-14.77,5.95-3.5,12.57-5.25,19.88-5.25s13.45,1.55,18.75,4.65c5.3,3.1,9.25,7,11.85,11.7v-15h13.8v82.2h-13.8v-15.3c-2.7,4.8-6.73,8.77-12.07,11.92-5.35,3.15-11.58,4.73-18.68,4.73s-13.9-1.8-19.8-5.4c-5.9-3.6-10.55-8.65-13.95-15.15-3.4-6.5-5.1-13.9-5.1-22.2s1.7-15.77,5.1-22.12ZM252.15,60.9c-2.5-4.6-5.88-8.12-10.12-10.57-4.25-2.45-8.92-3.68-14.02-3.68s-9.75,1.2-13.95,3.6c-4.2,2.4-7.55,5.9-10.05,10.5-2.5,4.6-3.75,10-3.75,16.2s1.25,11.77,3.75,16.42c2.5,4.65,5.85,8.2,10.05,10.65,4.2,2.45,8.85,3.68,13.95,3.68s9.77-1.22,14.02-3.68c4.25-2.45,7.62-6,10.12-10.65,2.5-4.65,3.75-10.07,3.75-16.27s-1.25-11.6-3.75-16.2Z"/>
  <path d="M408.75,38.62c5,2.65,8.95,6.63,11.85,11.93,2.9,5.3,4.35,11.75,4.35,19.35v48.45h-13.5v-46.5c0-8.2-2.03-14.48-6.08-18.83-4.05-4.35-9.52-6.52-16.42-6.52s-12.75,2.28-16.95,6.83c-4.2,4.55-6.3,11.13-6.3,19.73v45.3h-13.5v-46.5c0-8.2-2.03-14.48-6.08-18.83-4.05-4.35-9.52-6.52-16.42-6.52s-12.75,2.28-16.95,6.83c-4.2,4.55-6.3,11.13-6.3,19.73v45.3h-13.65V36.15h13.65v11.85c2.7-4.3,6.32-7.6,10.88-9.9,4.55-2.3,9.57-3.45,15.07-3.45,6.9,0,13,1.55,18.3,4.65,5.3,3.1,9.25,7.65,11.85,13.65,2.3-5.8,6.1-10.3,11.4-13.5,5.3-3.2,11.2-4.8,17.7-4.8s12.1,1.33,17.1,3.98Z"/>
  <path d="M573.97,43.43c6.25,6.25,9.38,14.98,9.38,26.17v48.75h-21v-45.9c0-6.5-1.65-11.48-4.95-14.93-3.3-3.45-7.8-5.17-13.5-5.17s-10.23,1.73-13.57,5.17c-3.35,3.45-5.03,8.43-5.03,14.93v45.9h-21v-45.9c0-6.5-1.65-11.48-4.95-14.93-3.3-3.45-7.8-5.17-13.5-5.17s-10.38,1.73-13.73,5.17c-3.35,3.45-5.02,8.43-5.02,14.93v45.9h-21V35.25h21v10.05c2.7-3.5,6.17-6.25,10.42-8.25,4.25-2,8.93-3,14.02-3,6.5,0,12.3,1.38,17.4,4.12,5.1,2.75,9.05,6.67,11.85,11.77,2.7-4.8,6.62-8.65,11.78-11.55,5.15-2.9,10.72-4.35,16.72-4.35,10.2,0,18.43,3.13,24.68,9.38Z"/>
  <path d="M733.87,43.2c6.15,6.3,9.23,15.05,9.23,26.25v48.9h-25.5v-45.45c0-5.4-1.43-9.57-4.28-12.52-2.85-2.95-6.78-4.42-11.78-4.42s-8.92,1.48-11.77,4.42c-2.85,2.95-4.28,7.12-4.28,12.52v45.45h-25.5v-45.45c0-5.4-1.42-9.57-4.27-12.52-2.85-2.95-6.78-4.42-11.78-4.42s-8.92,1.48-11.78,4.42c-2.85,2.95-4.27,7.12-4.27,12.52v45.45h-25.65V34.65h25.65v10.5c2.6-3.5,6-6.27,10.2-8.32,4.2-2.05,8.95-3.08,14.25-3.08,6.3,0,11.92,1.35,16.88,4.05,4.95,2.7,8.82,6.55,11.62,11.55,2.9-4.6,6.85-8.35,11.85-11.25,5-2.9,10.45-4.35,16.35-4.35,10.4,0,18.68,3.15,24.83,9.45Z"/>
  <path d="M895.12,43.05c6.05,6.4,9.08,15.15,9.08,26.25v49.05h-29.4v-45.15c0-4.5-1.25-8-3.75-10.5-2.5-2.5-5.9-3.75-10.2-3.75s-7.7,1.25-10.2,3.75c-2.5,2.5-3.75,6-3.75,10.5v45.15h-29.4v-45.15c0-4.5-1.23-8-3.67-10.5-2.45-2.5-5.83-3.75-10.12-3.75s-7.85,1.25-10.35,3.75c-2.5,2.5-3.75,6-3.75,10.5v45.15h-29.4V34.2h29.4v11.1c2.6-3.6,5.97-6.47,10.12-8.62,4.15-2.15,8.92-3.23,14.33-3.23,6.2,0,11.72,1.35,16.58,4.05,4.85,2.7,8.67,6.5,11.47,11.4,3-4.6,6.95-8.32,11.85-11.17,4.9-2.85,10.3-4.27,16.2-4.27,10.6,0,18.92,3.2,24.98,9.6Z"/>
  <path d="M921.97,115.27c-3.15-2.85-4.72-6.47-4.72-10.88s1.57-8.05,4.72-10.95c3.15-2.9,7.32-4.35,12.53-4.35s9.22,1.45,12.38,4.35c3.15,2.9,4.72,6.55,4.72,10.95s-1.58,7.9-4.72,10.8c-3.15,2.9-7.28,4.35-12.38,4.35s-9.38-1.43-12.53-4.28Z"/>
  <path d="M1010.84,58.65h-13.2v59.7h-29.55v-59.7h-9.15v-24.45h9.15v-.75c0-10.8,3.17-19.07,9.53-24.83,6.35-5.75,15.47-8.62,27.38-8.62,2.4,0,4.25.05,5.55.15v25.05c-.8-.1-1.9-.15-3.3-.15-3.2,0-5.55.73-7.05,2.17-1.5,1.45-2.35,3.78-2.55,6.98h13.2v24.45Z"/>
  <path d="M1062.74,37.65c4.7-2.8,9.75-4.2,15.15-4.2v31.35h-8.25c-6.4,0-11.15,1.25-14.25,3.75-3.1,2.5-4.65,6.85-4.65,13.05v36.75h-29.4V34.2h29.4v14.85c3.3-4.8,7.3-8.6,12-11.4Z"/>
</svg>
